<svg width="14" height="14" viewBox="0 0 14 14" fill="none" xmlns="http://www.w3.org/2000/svg">
<g clip-path="url(#clip0_502_24307)">
<path d="M12.4004 7C12.4004 4.01766 9.98234 1.59961 7 1.59961C4.01766 1.59961 1.59961 4.01766 1.59961 7C1.59961 9.98234 4.01766 12.4004 7 12.4004V14C3.13401 14 0 10.866 0 7C0 3.13401 3.13401 0 7 0C10.866 0 14 3.13401 14 7C14 10.866 10.866 14 7 14V12.4004C9.98234 12.4004 12.4004 9.98234 12.4004 7ZM6.2002 9.66602V7C6.2002 6.55817 6.55817 6.19922 7 6.19922C7.44183 6.19922 7.7998 6.55817 7.7998 7V9.66602C7.7998 10.1078 7.44183 10.4668 7 10.4668C6.55817 10.4668 6.2002 10.1078 6.2002 9.66602ZM7.00684 3.5332C7.44859 3.53329 7.80664 3.89124 7.80664 4.33301C7.80664 4.77478 7.44859 5.13272 7.00684 5.13281H7C6.55817 5.13281 6.2002 4.77484 6.2002 4.33301C6.2002 3.89118 6.55817 3.5332 7 3.5332H7.00684Z" fill="black"/>
</g>
<defs>
<clipPath id="clip0_502_24307">
<rect width="14" height="14" fill="white"/>
</clipPath>
</defs>
</svg>
