<svg width="14" height="14" viewBox="0 0 14 14" fill="none" xmlns="http://www.w3.org/2000/svg">
<path d="M5.99432 7.50334C6.21027 7.79233 6.48578 8.03144 6.80216 8.20447C7.11854 8.3775 7.4684 8.48039 7.828 8.50617C8.1876 8.53195 8.54853 8.48002 8.88632 8.35389C9.2241 8.22776 9.53084 8.03038 9.78572 7.77515L11.2942 6.26512C11.7522 5.79046 12.0056 5.15473 11.9999 4.49485C11.9942 3.83498 11.7298 3.20375 11.2636 2.73713C10.7975 2.27051 10.1669 2.00583 9.50766 2.0001C8.84844 1.99436 8.21335 2.24803 7.73917 2.70647L6.87429 3.56719M8.00568 6.49666C7.78973 6.20767 7.51422 5.96856 7.19784 5.79553C6.88146 5.6225 6.5316 5.51961 6.172 5.49383C5.8124 5.46805 5.45147 5.51998 5.11368 5.64611C4.7759 5.77224 4.46916 5.96962 4.21428 6.22485L2.70576 7.73488C2.24778 8.20954 1.99437 8.84527 2.0001 9.50515C2.00582 10.165 2.27024 10.7962 2.73639 11.2629C3.20254 11.7295 3.83313 11.9942 4.49234 11.9999C5.15156 12.0056 5.78665 11.752 6.26083 11.2935L7.12068 10.4328" stroke="#171719" stroke-width="1.4" stroke-linecap="round" stroke-linejoin="round"/>
</svg>
