<svg width="14" height="14" viewBox="0 0 14 14" fill="none" xmlns="http://www.w3.org/2000/svg">
<g clip-path="url(#clip0_1135_74546)">
<path fill-rule="evenodd" clip-rule="evenodd" d="M7 0C10.866 0 14 3.13401 14 7C14 10.866 10.866 14 7 14C3.13401 14 0 10.866 0 7C0 3.13401 3.13401 0 7 0ZM7.06641 9.16699C6.47737 9.16699 6.00011 9.64438 6 10.2334C6.00014 10.8224 6.47739 11.2998 7.06641 11.2998C7.65542 11.2998 8.13267 10.8224 8.13281 10.2334C8.13271 9.64438 7.65544 9.16699 7.06641 9.16699ZM7.06641 2.5C6.47739 2.5 6.00014 2.97742 6 3.56641V6.90039C6.00021 7.48931 6.47743 7.9668 7.06641 7.9668C7.65538 7.9668 8.1326 7.48931 8.13281 6.90039V3.56641C8.13267 2.97742 7.65542 2.5 7.06641 2.5Z" fill="black"/>
</g>
<defs>
<clipPath id="clip0_1135_74546">
<rect width="14" height="14" fill="white"/>
</clipPath>
</defs>
</svg>
