<svg width="14" height="14" viewBox="0 0 14 14" fill="none" xmlns="http://www.w3.org/2000/svg">
<g clip-path="url(#clip0_502_20993)">
<path d="M12.4004 7C12.4004 4.01766 9.98234 1.59961 7 1.59961C4.01766 1.59961 1.59961 4.01766 1.59961 7C1.59961 9.98234 4.01766 12.4004 7 12.4004V14C3.13401 14 0 10.866 0 7C3.22128e-08 3.13401 3.13401 3.22138e-08 7 0C10.866 0 14 3.13401 14 7C14 10.866 10.866 14 7 14V12.4004C9.98234 12.4004 12.4004 9.98234 12.4004 7ZM7.00684 8.86621C7.44848 8.8663 7.80647 9.22439 7.80664 9.66602C7.80664 10.1078 7.44859 10.4667 7.00684 10.4668H7C6.55817 10.4668 6.2002 10.1078 6.2002 9.66602C6.20037 9.22434 6.55828 8.86621 7 8.86621H7.00684ZM6.2002 7V4.33301C6.2002 3.89118 6.55817 3.5332 7 3.5332C7.44183 3.5332 7.7998 3.89118 7.7998 4.33301V7C7.79963 7.44168 7.44172 7.7998 7 7.7998C6.55828 7.7998 6.20037 7.44168 6.2002 7Z" fill="black"/>
</g>
<defs>
<clipPath id="clip0_502_20993">
<rect width="14" height="14" fill="white"/>
</clipPath>
</defs>
</svg>
