<svg width="20" height="20" viewBox="0 0 20 20" fill="none" xmlns="http://www.w3.org/2000/svg">
<g clip-path="url(#clip0_502_33495)">
<path fill-rule="evenodd" clip-rule="evenodd" d="M10 0C15.5228 0 20 4.47715 20 10C20 15.5228 15.5228 20 10 20C4.47715 20 0 15.5228 0 10C0 4.47715 4.47715 0 10 0ZM10 8.66699C9.26362 8.66699 8.66699 9.26362 8.66699 10V14.167C8.66717 14.9032 9.26373 15.5 10 15.5C10.7363 15.5 11.3328 14.9032 11.333 14.167V10C11.333 9.26362 10.7364 8.66699 10 8.66699ZM10 4.5C9.26373 4.5 8.66717 5.09678 8.66699 5.83301C8.66699 6.56939 9.26362 7.16602 10 7.16602C10.7364 7.16602 11.333 6.56939 11.333 5.83301C11.3328 5.09678 10.7363 4.5 10 4.5Z" fill="black"/>
</g>
<defs>
<clipPath id="clip0_502_33495">
<rect width="20" height="20" fill="white"/>
</clipPath>
</defs>
</svg>
