<svg width="36" height="36" viewBox="0 0 36 36" fill="none" xmlns="http://www.w3.org/2000/svg">
<circle cx="18" cy="18" r="18" fill="var(--color-fill-normal)"/>
<path d="M17.7186 19.3594C16.6311 19.3594 15.5881 19.7914 14.8192 20.5604C14.0502 21.3294 13.6182 22.3723 13.6182 23.4598C13.6182 24.5473 14.0502 25.5903 14.8192 26.3593C15.5881 27.1283 16.6311 27.5603 17.7186 27.5603C18.8061 27.5603 19.8491 27.1283 20.6181 26.3593C21.3871 25.5903 21.8191 24.5473 21.8191 23.4598C21.8191 22.3723 21.3871 21.3294 20.6181 20.5604C19.8491 19.7914 18.8061 19.3594 17.7186 19.3594Z" fill="var(--color-primary-alternative)"/>
<path d="M24.2775 15.0208C23.9853 11.6152 21.1361 9 17.7185 9C14.3009 9 11.4513 11.6157 11.1595 15.0208L10.9528 17.4336C10.8604 18.5103 10.5167 19.5503 9.94923 20.47L9.31388 21.499C8.67636 22.5319 9.02425 23.5993 10.2276 23.7595C11.6037 23.9425 13.9016 24.1065 17.7185 24.1065C21.5354 24.1065 23.8329 23.9425 25.2094 23.7595C26.4128 23.5993 26.7607 22.5319 26.1231 21.499L25.4878 20.4705C24.9202 19.5505 24.5765 18.5102 24.4843 17.4331L24.2771 15.0203L24.2775 15.0208Z" fill="var(--color-primary-alternative)"/>
<ellipse cx="24" cy="10" rx="3" ry="3" fill="var(--color-status-negative)"/>
</svg>
