<svg width="20" height="20" viewBox="0 0 20 20" fill="none" xmlns="http://www.w3.org/2000/svg">
<path d="M17.368 13.1146C16.8591 14.3185 16.0631 15.3793 15.0496 16.2044C14.0361 17.0294 12.8359 17.5936 11.5541 17.8475C10.2722 18.1015 8.94772 18.0375 7.69632 17.6611C6.44493 17.2847 5.30476 16.6075 4.37549 15.6885C3.44622 14.7696 2.75616 13.6369 2.36562 12.3896C1.97509 11.1423 1.89597 9.81822 2.1352 8.53323C2.37442 7.24825 2.9247 6.04145 3.73792 5.01833C4.55115 3.99521 5.60256 3.18693 6.80023 2.66415M18 10.0019C18 8.95105 17.7931 7.91052 17.391 6.93969C16.989 5.96885 16.3998 5.08674 15.6569 4.34369C14.914 3.60065 14.0322 3.01124 13.0616 2.60911C12.091 2.20697 11.0507 2 10.0002 2V10.0019H18Z" stroke="black" stroke-width="1.6" stroke-linecap="round" stroke-linejoin="round"/>
</svg>
