<svg width="36" height="36" viewBox="0 0 36 36" fill="none" xmlns="http://www.w3.org/2000/svg">
<circle cx="18" cy="18" r="18" fill="var(--color-fill-normal)"/>
<path fill-rule="evenodd" clip-rule="evenodd" d="M23.87 15C23.87 17.0293 22.8624 18.8234 21.3203 19.9092C23.4482 20.7115 25.1426 22.2293 26.0102 24.1174C26.5635 25.3216 25.8721 26.7632 24.5492 26.8432L24.5107 26.8454C22.886 26.9301 20.6869 27 17.8508 27C15.0146 27 12.8155 26.9301 11.1909 26.8454L11.1531 26.8432C9.83011 26.7634 9.13845 25.3218 9.69182 24.1175C10.5627 22.2221 12.267 20.6998 14.4065 19.9C12.8718 18.8132 11.87 17.0236 11.87 15C11.87 11.6863 14.5563 9 17.87 9C21.1837 9 23.87 11.6863 23.87 15Z" fill="var(--color-primary-alternative)"/>
</svg>
