<svg width="20" height="20" viewBox="0 0 20 20" fill="none" xmlns="http://www.w3.org/2000/svg">
<path d="M9.33333 4.5C9.33333 3.39543 8.4379 2.5 7.33333 2.5H4.5C3.39543 2.5 2.5 3.39543 2.5 4.5V7.33333C2.5 8.4379 3.39543 9.33333 4.5 9.33333H7.33333C8.4379 9.33333 9.33333 8.4379 9.33333 7.33333V4.5Z" fill="#171719"/>
<path d="M17.5 4.5C17.5 3.39543 16.6046 2.5 15.5 2.5H12.6667C11.5621 2.5 10.6667 3.39543 10.6667 4.5V7.33333C10.6667 8.4379 11.5621 9.33333 12.6667 9.33333H15.5C16.6046 9.33333 17.5 8.4379 17.5 7.33333V4.5Z" fill="#171719"/>
<path d="M17.5 12.6667C17.5 11.5621 16.6046 10.6667 15.5 10.6667H12.6667C11.5621 10.6667 10.6667 11.5621 10.6667 12.6667V15.5C10.6667 16.6046 11.5621 17.5 12.6667 17.5H15.5C16.6046 17.5 17.5 16.6046 17.5 15.5V12.6667Z" fill="#171719"/>
<path d="M9.33333 12.6667C9.33333 11.5621 8.4379 10.6667 7.33333 10.6667H4.5C3.39543 10.6667 2.5 11.5621 2.5 12.6667V15.5C2.5 16.6046 3.39543 17.5 4.5 17.5H7.33333C8.4379 17.5 9.33333 16.6046 9.33333 15.5V12.6667Z" fill="#171719"/>
</svg>
