<svg width="20" height="20" viewBox="0 0 20 20" fill="none" xmlns="http://www.w3.org/2000/svg">
<g clip-path="url(#clip0_502_33493)">
<path fill-rule="evenodd" clip-rule="evenodd" d="M10.0002 1C10.2383 1.00004 10.4603 1.05498 10.6663 1.16504C10.8723 1.27515 11.0417 1.4409 11.1741 1.66113L19.7727 16.916C20.0619 17.379 20.0754 17.8425 19.8118 18.3057C19.5481 18.7687 19.1432 19 18.5989 19H1.40063C0.856937 19 0.452734 18.7667 0.188714 18.3008C-0.0750353 17.8351 -0.0623014 17.3733 0.2268 16.916L8.82641 1.66113C8.95869 1.44102 9.12738 1.27515 9.33325 1.16504C9.53926 1.05492 9.76208 1 10.0002 1ZM10.0911 13.3184C9.48864 13.3184 9.00028 13.8068 9.00024 14.4092C9.00024 15.0116 9.48861 15.5 10.0911 15.5C10.6933 15.4998 11.1809 15.0115 11.1809 14.4092C11.1809 13.8069 10.6933 13.3186 10.0911 13.3184ZM10.0911 6.5C9.48877 6.5 9.00049 6.98762 9.00024 7.58984V10.999C9.00024 11.6015 9.48861 12.0898 10.0911 12.0898C10.6933 12.0896 11.1809 11.6013 11.1809 10.999V7.58984C11.1806 6.98777 10.6931 6.50024 10.0911 6.5Z" fill="black"/>
</g>
<defs>
<clipPath id="clip0_502_33493">
<rect width="20" height="20" fill="white"/>
</clipPath>
</defs>
</svg>
