<svg width="20" height="20" viewBox="0 0 20 20" fill="none" xmlns="http://www.w3.org/2000/svg">
<g clip-path="url(#clip0_502_33496)">
<path fill-rule="evenodd" clip-rule="evenodd" d="M10 0C15.5228 0 20 4.47715 20 10C20 15.5228 15.5228 20 10 20C4.47715 20 0 15.5228 0 10C0 4.47715 4.47715 0 10 0ZM10 12.834C9.26362 12.834 8.66699 13.4306 8.66699 14.167C8.66717 14.9032 9.26373 15.5 10 15.5C10.7363 15.5 11.3328 14.9032 11.333 14.167C11.333 13.4306 10.7364 12.834 10 12.834ZM10 4.5C9.26373 4.5 8.66717 5.09678 8.66699 5.83301V10C8.66699 10.7364 9.26362 11.333 10 11.333C10.7364 11.333 11.333 10.7364 11.333 10V5.83301C11.3328 5.09678 10.7363 4.5 10 4.5Z" fill="black"/>
</g>
<defs>
<clipPath id="clip0_502_33496">
<rect width="20" height="20" fill="white"/>
</clipPath>
</defs>
</svg>
