<svg width="12" height="12" viewBox="0 0 12 12" fill="none" xmlns="http://www.w3.org/2000/svg">
<g clip-path="url(#clip0_1223_73762)">
<path d="M4.37489 2.40539C4.70533 1.43833 6.04146 1.40904 6.43324 2.31753L6.46639 2.40594L6.91232 3.7101C7.01452 4.00919 7.17966 4.28288 7.39662 4.51272C7.61357 4.74255 7.8773 4.92319 8.16999 5.04243L8.2899 5.08719L9.59398 5.5326C10.561 5.86306 10.5903 7.19926 9.6824 7.59106L9.59398 7.62422L8.2899 8.07017C7.99072 8.1723 7.71694 8.33743 7.48701 8.5544C7.25709 8.77137 7.07638 9.03514 6.95708 9.3279L6.91232 9.44727L6.46695 10.752C6.1365 11.719 4.80037 11.7483 4.40914 10.8404L4.37489 10.752L3.92951 9.44782C3.82738 9.14863 3.66227 8.87483 3.44531 8.64489C3.22835 8.41496 2.96459 8.23424 2.67184 8.11493L2.55248 8.07017L1.2484 7.62477C0.280835 7.29431 0.251549 5.9581 1.15999 5.56686L1.2484 5.5326L2.55248 5.08719C2.85156 4.98499 3.12524 4.81984 3.35506 4.60287C3.58488 4.38591 3.76551 4.12217 3.88475 3.82946L3.92951 3.7101L4.37489 2.40539ZM5.42092 2.76238L4.97554 4.06653C4.81993 4.5226 4.56678 4.93926 4.23372 5.28751C3.90066 5.63576 3.4957 5.90722 3.04704 6.08299L2.9089 6.13328L1.60481 6.57868L2.9089 7.02408C3.36494 7.1797 3.78158 7.43287 4.12981 7.76594C4.47805 8.09901 4.74949 8.504 4.92525 8.95268L4.97554 9.09084L5.42092 10.395L5.86629 9.09084C6.0219 8.63477 6.27505 8.2181 6.60811 7.86985C6.94117 7.5216 7.34613 7.25014 7.79479 7.07437L7.93293 7.02464L9.23702 6.57868L7.93293 6.13328C7.47689 5.97766 7.06025 5.7245 6.71202 5.39143C6.36379 5.05835 6.09234 4.65337 5.91658 4.20468L5.86685 4.06653L5.42092 2.76238ZM9.84154 0.5C9.94491 0.5 10.0462 0.529 10.1339 0.583704C10.2217 0.638409 10.2923 0.716624 10.3378 0.80946L10.3643 0.874115L10.5577 1.44109L11.1252 1.6345C11.2288 1.6697 11.3196 1.73487 11.3861 1.82174C11.4526 1.9086 11.4919 2.01327 11.4989 2.12247C11.5059 2.23166 11.4803 2.34048 11.4253 2.43511C11.3704 2.52975 11.2887 2.60595 11.1904 2.65406L11.1252 2.68059L10.5582 2.874L10.3648 3.44153C10.3296 3.5451 10.2644 3.63588 10.1775 3.70236C10.0906 3.76883 9.98589 3.80801 9.87671 3.81494C9.76752 3.82186 9.65873 3.79622 9.56413 3.74125C9.46954 3.68629 9.39338 3.60448 9.34532 3.50618L9.3188 3.44153L9.1254 2.87455L8.5579 2.68114C8.4543 2.64594 8.36348 2.58078 8.29696 2.49391C8.23043 2.40704 8.19119 2.30237 8.1842 2.19318C8.17722 2.08398 8.20281 1.97517 8.25773 1.88053C8.31265 1.78589 8.39443 1.70969 8.4927 1.66158L8.5579 1.63506L9.12484 1.44164L9.31825 0.874115C9.35551 0.764934 9.426 0.670153 9.51985 0.603061C9.61369 0.535969 9.72618 0.499931 9.84154 0.5Z" fill="black"/>
</g>
<defs>
<clipPath id="clip0_1223_73762">
<rect width="12" height="12" fill="white"/>
</clipPath>
</defs>
</svg>
