<svg width="12" height="12" viewBox="0 0 12 12" fill="none" xmlns="http://www.w3.org/2000/svg">
<path d="M6.808 3.2422L8.41882 4.85596M5.79382 10.4165H10.2938M8.00549 2.04472C8.11874 1.93147 8.25319 1.84163 8.40116 1.78034C8.54913 1.71905 8.70772 1.6875 8.86789 1.6875C9.02805 1.6875 9.18664 1.71905 9.33461 1.78034C9.48258 1.84163 9.61703 1.93147 9.73028 2.04472C9.84353 2.15797 9.93337 2.29242 9.99466 2.44039C10.056 2.58836 10.0875 2.74695 10.0875 2.90712C10.0875 3.06728 10.056 3.22587 9.99466 3.37384C9.93337 3.52181 9.84353 3.65626 9.73028 3.76951L3.8716 9.6282L1.5 10.275L2.1468 7.9034L8.00549 2.04472Z" stroke="black" stroke-width="1.2" stroke-linecap="round" stroke-linejoin="round"/>
</svg>
