<svg width="12" height="12" viewBox="0 0 12 12" fill="none" xmlns="http://www.w3.org/2000/svg">
<path d="M8.7 8.7C7.923 9.29227 6.97687 9.62039 6 9.63636C2.81818 9.63636 1 6 1 6C1.5654 4.94632 2.34961 4.02573 3.3 3.3M5.04545 2.47273C5.35833 2.39949 5.67867 2.36288 6 2.36364C9.18182 2.36364 11 6 11 6C10.7241 6.51619 10.395 7.00215 10.0182 7.45M6.96364 6.96364C6.8388 7.09761 6.68825 7.20507 6.52098 7.2796C6.35371 7.35413 6.17314 7.39421 5.99004 7.39744C5.80694 7.40067 5.62507 7.36699 5.45528 7.2984C5.28548 7.22982 5.13124 7.12774 5.00175 6.99825C4.87226 6.86876 4.77018 6.71452 4.70159 6.54472C4.63301 6.37493 4.59933 6.19305 4.60256 6.00996C4.60579 5.82686 4.64587 5.64629 4.7204 5.47902C4.79493 5.31175 4.90239 5.1612 5.03636 5.03636M2 2L10 10" stroke="black" stroke-width="1.2" stroke-linecap="round" stroke-linejoin="round"/>
</svg>
