<svg width="12" height="12" viewBox="0 0 12 12" fill="none" xmlns="http://www.w3.org/2000/svg">
<path d="M1 9.74286V4.08571C1 3.88667 1.04463 3.69809 1.13389 3.52C1.22314 3.3419 1.34613 3.19524 1.50286 3.08L5.27428 0.251429C5.49428 0.0838096 5.74571 0 6.02857 0C6.31143 0 6.56286 0.0838096 6.78286 0.251429L10.5543 3.08C10.7114 3.19524 10.8346 3.3419 10.9239 3.52C11.0131 3.69809 11.0576 3.88667 11.0571 4.08571V9.74286C11.0571 10.0886 10.9339 10.3846 10.6875 10.631C10.4411 10.8774 10.1453 11.0004 9.8 11H7.91428C7.73619 11 7.58701 10.9397 7.46674 10.819C7.34647 10.6983 7.28613 10.5491 7.28571 10.3714V7.22857C7.28571 7.05047 7.22537 6.90129 7.10468 6.78103C6.984 6.66076 6.83482 6.60042 6.65714 6.6H5.4C5.2219 6.6 5.07272 6.66034 4.95246 6.78103C4.83219 6.90171 4.77185 7.05089 4.77143 7.22857V10.3714C4.77143 10.5495 4.71108 10.6989 4.5904 10.8196C4.46971 10.9403 4.32053 11.0004 4.14286 11H2.25714C1.91143 11 1.61558 10.877 1.3696 10.631C1.12362 10.385 1.00042 10.089 1 9.74286Z" fill="currentColor"/>
</svg>
