<svg width="12" height="12" viewBox="0 0 12 12" fill="none" xmlns="http://www.w3.org/2000/svg">
<g clip-path="url(#clip0_488_19914)">
<path fill-rule="evenodd" clip-rule="evenodd" d="M6 0C9.31371 0 12 2.68629 12 6C12 9.31371 9.31371 12 6 12C2.68629 12 0 9.31371 0 6C0 2.68629 2.68629 0 6 0ZM6.10059 5.16602C5.65876 5.16602 5.30078 5.52497 5.30078 5.9668V8.63281C5.30078 9.07464 5.65876 9.43359 6.10059 9.43359C6.54241 9.43359 6.90039 9.07464 6.90039 8.63281V5.9668C6.90039 5.52497 6.54241 5.16602 6.10059 5.16602ZM6.10059 2.5C5.65876 2.5 5.30078 2.85798 5.30078 3.2998C5.30078 3.74163 5.65876 4.09961 6.10059 4.09961H6.10742C6.54917 4.09952 6.90723 3.74158 6.90723 3.2998C6.90723 2.85803 6.54917 2.50009 6.10742 2.5H6.10059Z" fill="black"/>
</g>
<defs>
<clipPath id="clip0_488_19914">
<rect width="12" height="12" fill="white"/>
</clipPath>
</defs>
</svg>
