<svg width="12" height="12" viewBox="0 0 12 12" fill="none" xmlns="http://www.w3.org/2000/svg">
<g clip-path="url(#clip0_443_18063)">
<path d="M6.0498 1.1001C8.95006 1.1001 11.2998 2.97522 11.2998 5.28731C11.2998 7.5994 8.95006 9.47452 6.0498 9.47452C5.73079 9.47452 5.41908 9.45239 5.11647 9.40814C4.81387 9.62386 3.06387 10.8666 2.89798 10.8905C2.89798 10.8905 2.83053 10.9163 2.7722 10.8832C2.71387 10.85 2.7248 10.7596 2.7248 10.7596C2.74303 10.6379 3.18053 9.11498 3.26074 8.83288C1.78236 8.09353 0.799805 6.78076 0.799805 5.28546C0.799805 2.97337 3.14954 1.1001 6.0498 1.1001Z" stroke="black" stroke-width="1.2" stroke-linecap="round" stroke-linejoin="round"/>
</g>
<defs>
<clipPath id="clip0_443_18063">
<rect width="12" height="12" fill="white"/>
</clipPath>
</defs>
</svg>
