<svg width="12" height="12" viewBox="0 0 12 12" fill="none" xmlns="http://www.w3.org/2000/svg">
<g clip-path="url(#clip0_718_75686)">
<path fill-rule="evenodd" clip-rule="evenodd" d="M1 3C1 2.60218 1.15804 2.22064 1.43934 1.93934C1.72064 1.65804 2.10218 1.5 2.5 1.5H9.5C9.89783 1.5 10.2794 1.65804 10.5607 1.93934C10.842 2.22064 11 2.60218 11 3V8C11 8.39782 10.842 8.77936 10.5607 9.06066C10.2794 9.34196 9.89783 9.5 9.5 9.5H5.6665L4 10.75C3.588 11.059 3 10.765 3 10.25V9.5H2.5C2.10218 9.5 1.72064 9.34196 1.43934 9.06066C1.15804 8.77936 1 8.39782 1 8V3Z" stroke="black" stroke-width="1.2"/>
<path d="M4.3002 5.39961C4.3002 5.84144 3.94202 6.19961 3.5002 6.19961C3.05837 6.19961 2.7002 5.84144 2.7002 5.39961C2.7002 4.95778 3.05837 4.59961 3.5002 4.59961C3.94202 4.59961 4.3002 4.95778 4.3002 5.39961Z" fill="black"/>
<path d="M6.90029 5.39961C6.90029 5.84144 6.54212 6.19961 6.10029 6.19961C5.65847 6.19961 5.30029 5.84144 5.30029 5.39961C5.30029 4.95778 5.65847 4.59961 6.10029 4.59961C6.54212 4.59961 6.90029 4.95778 6.90029 5.39961Z" fill="black"/>
<path d="M9.50039 5.39961C9.50039 5.84144 9.14222 6.19961 8.70039 6.19961C8.25856 6.19961 7.90039 5.84144 7.90039 5.39961C7.90039 4.95778 8.25856 4.59961 8.70039 4.59961C9.14222 4.59961 9.50039 4.95778 9.50039 5.39961Z" fill="black"/>
</g>
<defs>
<clipPath id="clip0_718_75686">
<rect width="12" height="12" fill="white"/>
</clipPath>
</defs>
</svg>
