<svg width="16" height="16" viewBox="0 0 16 16" fill="none" xmlns="http://www.w3.org/2000/svg">
<path d="M5.93167 3.42504C6.35223 2.19424 8.05277 2.15696 8.55139 3.31322L8.59359 3.42575L9.16114 5.08558C9.29121 5.46624 9.50139 5.81458 9.77752 6.10709C10.0536 6.39961 10.3893 6.62951 10.7618 6.78128L10.9144 6.83825L12.5742 7.40512C13.8049 7.82571 13.8422 9.52633 12.6867 10.025L12.5742 10.0672L10.9144 10.6348C10.5336 10.7648 10.1852 10.9749 9.89256 11.2511C9.59993 11.5272 9.36994 11.8629 9.2181 12.2355L9.16114 12.3874L8.59429 14.048C8.17373 15.2788 6.4732 15.3161 5.97528 14.1605L5.93167 14.048L5.36483 12.3881C5.23485 12.0073 5.0247 11.6589 4.74857 11.3662C4.47244 11.0736 4.13675 10.8436 3.76416 10.6917L3.61225 10.6348L1.95251 10.0679C0.721063 9.6473 0.683789 7.94668 1.83998 7.44873L1.95251 7.40512L3.61225 6.83825C3.99289 6.70817 4.34121 6.49798 4.63371 6.22184C4.92622 5.9457 5.1561 5.61004 5.30786 5.23749L5.36483 5.08558L5.93167 3.42504ZM7.26298 3.87939L6.69614 5.53922C6.49809 6.11967 6.1759 6.64997 5.75201 7.0932C5.32812 7.53642 4.81271 7.88192 4.24169 8.10563L4.06587 8.16963L2.40612 8.73651L4.06587 9.30338C4.64629 9.50144 5.17656 9.82365 5.61976 10.2476C6.06297 10.6715 6.40844 11.1869 6.63214 11.758L6.69614 11.9338L7.26298 13.5936L7.82983 11.9338C8.02788 11.3533 8.35007 10.823 8.77396 10.3798C9.19785 9.93659 9.71325 9.59109 10.2843 9.36738L10.4601 9.30408L12.1198 8.73651L10.4601 8.16963C9.87968 7.97157 9.3494 7.64936 8.9062 7.22545C8.463 6.80154 8.11752 6.28611 7.89383 5.71505L7.83053 5.53922L7.26298 3.87939ZM12.8892 1C13.0208 1 13.1497 1.03691 13.2614 1.10653C13.373 1.17616 13.4629 1.2757 13.5208 1.39386L13.5545 1.47615L13.8007 2.19775L14.523 2.44391C14.6548 2.48871 14.7704 2.57165 14.8551 2.68221C14.9397 2.79277 14.9897 2.92598 14.9986 3.06496C15.0075 3.20394 14.9749 3.34242 14.905 3.46287C14.8351 3.58332 14.731 3.68031 14.6059 3.74154L14.523 3.7753L13.8014 4.02146L13.5552 4.74377C13.5104 4.87559 13.4274 4.99112 13.3168 5.07573C13.2062 5.16033 13.073 5.2102 12.934 5.21901C12.795 5.22783 12.6566 5.19519 12.5362 5.12523C12.4158 5.05527 12.3189 4.95115 12.2577 4.82605L12.2239 4.74377L11.9778 4.02216L11.2555 3.776C11.1237 3.7312 11.0081 3.64827 10.9234 3.5377C10.8387 3.42714 10.7888 3.29393 10.7799 3.15495C10.771 3.01598 10.8036 2.87749 10.8735 2.75704C10.9434 2.63659 11.0475 2.53961 11.1725 2.47838L11.2555 2.44462L11.9771 2.19846L12.2232 1.47615C12.2706 1.33719 12.3604 1.21656 12.4798 1.13117C12.5992 1.04578 12.7424 0.999912 12.8892 1Z" fill="#171719"/>
</svg>
