<svg width="16" height="16" viewBox="0 0 16 16" fill="none" xmlns="http://www.w3.org/2000/svg">
<path d="M3.75829 11C3.53712 11 3.35545 10.9149 3.21327 10.7447C3.07109 10.5745 3 10.3872 3 10.183C3 10.1149 3.07899 9.92766 3.23697 9.62128L7.21801 5.33191C7.32859 5.21277 7.45103 5.12766 7.58531 5.0766C7.71959 5.02553 7.85782 5 8 5C8.14218 5 8.28041 5.02553 8.41469 5.0766C8.54897 5.12766 8.67141 5.21277 8.78199 5.33191L12.763 9.62128C12.842 9.70638 12.9013 9.79574 12.9408 9.88936C12.9803 9.98298 13 10.0809 13 10.183C13 10.3872 12.9289 10.5745 12.7867 10.7447C12.6445 10.9149 12.4629 11 12.2417 11H3.75829Z" fill="black"/>
</svg>
