<svg width="16" height="16" viewBox="0 0 16 16" fill="none" xmlns="http://www.w3.org/2000/svg">
<path d="M3.75829 5C3.53712 5 3.35545 5.08511 3.21327 5.25532C3.07109 5.42553 3 5.61277 3 5.81702C3 5.88511 3.07899 6.07234 3.23697 6.37872L7.21801 10.6681C7.32859 10.7872 7.45103 10.8723 7.58531 10.9234C7.71959 10.9745 7.85782 11 8 11C8.14218 11 8.28041 10.9745 8.41469 10.9234C8.54897 10.8723 8.67141 10.7872 8.78199 10.6681L12.763 6.37872C12.842 6.29362 12.9013 6.20426 12.9408 6.11064C12.9803 6.01702 13 5.91915 13 5.81702C13 5.61277 12.9289 5.42553 12.7867 5.25532C12.6445 5.08511 12.4629 5 12.2417 5H3.75829Z" fill="black"/>
</svg>
