<svg width="16" height="16" viewBox="0 0 16 16" fill="none" xmlns="http://www.w3.org/2000/svg">
<path d="M9.07733 4.32294L11.2251 6.47461M7.7251 13.8887H13.7251M10.674 2.72629C10.825 2.57529 11.0043 2.45551 11.2015 2.37378C11.3988 2.29206 11.6103 2.25 11.8238 2.25C12.0374 2.25 12.2489 2.29206 12.4461 2.37378C12.6434 2.45551 12.8227 2.57529 12.9737 2.72629C13.1247 2.87729 13.2445 3.05656 13.3262 3.25385C13.4079 3.45115 13.45 3.6626 13.45 3.87615C13.45 4.0897 13.4079 4.30116 13.3262 4.49846C13.2445 4.69575 13.1247 4.87502 12.9737 5.02602L5.16213 12.8376L2 13.7L2.8624 10.5379L10.674 2.72629Z" stroke="black" stroke-width="1.4" stroke-linecap="round" stroke-linejoin="round"/>
</svg>
