<svg width="16" height="16" viewBox="0 0 16 16" fill="none" xmlns="http://www.w3.org/2000/svg">
<path d="M11.3522 11.6299C10.3076 12.4261 9.03556 12.8673 7.72222 12.8887C3.44444 12.8887 1 7.99985 1 7.99985C1.76015 6.58323 2.81447 5.34556 4.09222 4.36985M6.43889 3.25763C6.85954 3.15917 7.29021 3.10995 7.72222 3.11096C12 3.11096 14.4444 7.99985 14.4444 7.99985C14.0735 8.69383 13.6311 9.34719 13.1244 9.94929M9.01778 9.29541C8.84994 9.47553 8.64753 9.62 8.42265 9.7202C8.19776 9.82041 7.95499 9.87429 7.70883 9.87863C7.46267 9.88297 7.21815 9.83769 6.98987 9.74548C6.76159 9.65328 6.55422 9.51603 6.38013 9.34194C6.20604 9.16785 6.0688 8.96048 5.97659 8.7322C5.88438 8.50392 5.8391 8.2594 5.84344 8.01324C5.84779 7.76708 5.90167 7.52431 6.00187 7.29942C6.10207 7.07454 6.24654 6.87214 6.42667 6.7043M2.22237 2.5L13.2224 13.5" stroke="black" stroke-width="1.6" stroke-linecap="round" stroke-linejoin="round"/>
</svg>
