<svg width="16" height="16" viewBox="0 0 16 16" fill="none" xmlns="http://www.w3.org/2000/svg">
<path d="M3.4462 15.5C3.04207 15.5 2.7 15.3618 2.42 15.0855C2.14 14.8092 2 14.4716 2 14.0728V1.92717C2 1.52836 2.14 1.19079 2.42 0.914474C2.7 0.638158 3.04207 0.5 3.4462 0.5H9.2016C9.3944 0.5 9.5798 0.536974 9.7578 0.610921C9.93567 0.684737 10.0903 0.786448 10.2216 0.916053L13.5784 4.22868C13.7097 4.35829 13.8128 4.51086 13.8876 4.68638C13.9625 4.86204 14 5.045 14 5.23526V14.0728C14 14.4716 13.86 14.8092 13.58 15.0855C13.3 15.3618 12.9579 15.5 12.5538 15.5H3.4462ZM9.2 4.52316C9.2 4.72671 9.269 4.89651 9.407 5.03257C9.54487 5.16875 9.71693 5.23684 9.9232 5.23684H12.8L9.2 1.68421V4.52316Z" fill="black"/>
<path d="M8 7V12M6 10L8 12L10 10" stroke="white" stroke-width="1.2" stroke-linecap="round" stroke-linejoin="round"/>
</svg>
