<svg width="16" height="16" viewBox="0 0 16 16" fill="none" xmlns="http://www.w3.org/2000/svg">
<path d="M8 15C11.866 15 15 11.866 15 8C15 4.13401 11.866 1 8 1C4.13401 1 1 4.13401 1 8C1 11.866 4.13401 15 8 15Z" fill="black"/>
<path d="M7.2002 10.6328V7.9668C7.2002 7.52497 7.55817 7.16602 8 7.16602C8.44183 7.16602 8.7998 7.52497 8.7998 7.9668V10.6328C8.7998 11.0746 8.44183 11.4336 8 11.4336C7.55817 11.4336 7.2002 11.0746 7.2002 10.6328ZM8.00684 4.5C8.44859 4.50009 8.80664 4.85803 8.80664 5.2998C8.80664 5.74158 8.44859 6.09952 8.00684 6.09961H8C7.55817 6.09961 7.2002 5.74163 7.2002 5.2998C7.2002 4.85798 7.55817 4.5 8 4.5H8.00684Z" fill="white"/>
</svg>
