<svg width="16" height="16" viewBox="0 0 16 16" fill="none" xmlns="http://www.w3.org/2000/svg">
<path d="M9.96344 4.69922H11.9271C12.3569 4.69922 12.7824 4.78328 13.1795 4.94661C13.5766 5.10994 13.9373 5.34933 14.2412 5.65112C14.5451 5.95291 14.7862 6.31119 14.9507 6.7055C15.1152 7.09981 15.1998 7.52242 15.1998 7.94922C15.1998 8.37601 15.1152 8.79863 14.9507 9.19294C14.7862 9.58725 14.5451 9.94553 14.2412 10.2473C13.9373 10.5491 13.5766 10.7885 13.1795 10.9518C12.7824 11.1152 12.3569 11.1992 11.9271 11.1992H9.96344M6.03617 11.1992H4.07253C3.64275 11.1992 3.21718 11.1152 2.82011 10.9518C2.42305 10.7885 2.06227 10.5491 1.75836 10.2473C1.14461 9.63782 0.799805 8.81117 0.799805 7.94922C0.799805 7.08727 1.14461 6.26061 1.75836 5.65112C2.37212 5.04163 3.20455 4.69922 4.07253 4.69922H6.03617M5.38162 7.94922H10.618" stroke="black" stroke-width="1.6" stroke-linecap="round" stroke-linejoin="round"/>
</svg>
