<svg width="16" height="16" viewBox="0 0 16 16" fill="none" xmlns="http://www.w3.org/2000/svg">
<path fill-rule="evenodd" clip-rule="evenodd" d="M1.3335 4C1.3335 3.46957 1.54421 2.96086 1.91928 2.58579C2.29436 2.21071 2.80306 2 3.3335 2H12.6668C13.1973 2 13.706 2.21071 14.081 2.58579C14.4561 2.96086 14.6668 3.46957 14.6668 4V10.6667C14.6668 11.1971 14.4561 11.7058 14.081 12.0809C13.706 12.456 13.1973 12.6667 12.6668 12.6667H7.5555L5.3335 14.3333C4.78416 14.7453 4.00016 14.3533 4.00016 13.6667V12.6667H3.3335C2.80306 12.6667 2.29436 12.456 1.91928 12.0809C1.54421 11.7058 1.3335 11.1971 1.3335 10.6667V4Z" stroke="black" stroke-width="1.6"/>
<path d="M5.8998 7.3C5.8998 7.74183 5.54163 8.1 5.0998 8.1C4.65798 8.1 4.2998 7.74183 4.2998 7.3C4.2998 6.85817 4.65798 6.5 5.0998 6.5C5.54163 6.5 5.8998 6.85817 5.8998 7.3Z" fill="black"/>
<path d="M8.8998 7.3C8.8998 7.74183 8.54163 8.1 8.0998 8.1C7.65798 8.1 7.2998 7.74183 7.2998 7.3C7.2998 6.85817 7.65798 6.5 8.0998 6.5C8.54163 6.5 8.8998 6.85817 8.8998 7.3Z" fill="black"/>
<path d="M11.8998 7.3C11.8998 7.74183 11.5416 8.1 11.0998 8.1C10.658 8.1 10.2998 7.74183 10.2998 7.3C10.2998 6.85817 10.658 6.5 11.0998 6.5C11.5416 6.5 11.8998 6.85817 11.8998 7.3Z" fill="black"/>
</svg>
