<svg width="16" height="16" viewBox="0 0 16 16" fill="none" xmlns="http://www.w3.org/2000/svg">
<circle cx="8" cy="8" r="7" fill="#171719"/>
<path d="M8.78072 3.87771C8.28378 3.71799 7.74951 3.71652 7.25171 3.87351C6.7539 4.03051 6.31713 4.3382 6.00172 4.75411C5.8931 4.89591 5.8428 5.07388 5.86111 5.25156C5.87943 5.42925 5.96498 5.59321 6.10025 5.70987C6.23552 5.82653 6.41027 5.88707 6.58872 5.87908C6.76717 5.87109 6.93582 5.79518 7.06012 5.6669L7.11752 5.59971C7.22234 5.46168 7.35777 5.34986 7.51314 5.27305C7.66851 5.19624 7.83959 5.15654 8.01291 5.15707C8.18623 5.1576 8.35706 5.19835 8.51195 5.2761C8.66685 5.35386 8.80159 5.46651 8.90556 5.60518C9.00954 5.74385 9.07991 5.90476 9.11114 6.07524C9.14237 6.24572 9.13361 6.42113 9.08555 6.58765C9.03749 6.75417 8.95143 6.90727 8.83416 7.03489C8.71689 7.16251 8.57159 7.26117 8.40972 7.3231C8.05578 7.45073 7.75263 7.68946 7.54559 8.00362C7.33854 8.31779 7.23871 8.69051 7.26102 9.0661C7.27191 9.24376 7.35007 9.4106 7.47961 9.53268C7.60914 9.65476 7.78031 9.72292 7.95831 9.72327C8.1363 9.72363 8.30775 9.65616 8.43777 9.5346C8.56779 9.41304 8.64662 9.24652 8.65822 9.0689V8.987C8.65459 8.92106 8.66969 8.85544 8.70177 8.79772C8.73385 8.74 8.7816 8.69253 8.83952 8.6608L8.89202 8.637C9.38329 8.45223 9.80483 8.11907 10.0981 7.68379C10.3914 7.24851 10.5419 6.7327 10.5286 6.208C10.5144 5.68642 10.3386 5.18212 10.0255 4.76472C9.7124 4.34731 9.27747 4.03738 8.78072 3.87771Z" fill="white"/>
<circle cx="8" cy="11.5" r="1" fill="white"/>
</svg>
