<svg width="16" height="16" viewBox="0 0 16 16" fill="none" xmlns="http://www.w3.org/2000/svg">
<path d="M2.2002 4.30005H3.47797M3.47797 4.30005H13.7002M3.47797 4.30005L3.47797 13.05C3.47797 13.3816 3.6126 13.6995 3.85223 13.9339C4.09186 14.1684 4.41686 14.3 4.75575 14.3H11.1446C11.4835 14.3 11.8085 14.1684 12.0482 13.9339C12.2878 13.6995 12.4224 13.3816 12.4224 13.05V4.30005M5.39464 4.30005V3.05005C5.39464 2.71853 5.52926 2.40059 5.76889 2.16617C6.00852 1.93174 6.33353 1.80005 6.67242 1.80005H9.22797C9.56686 1.80005 9.89187 1.93174 10.1315 2.16617C10.3711 2.40059 10.5058 2.71853 10.5058 3.05005V4.30005M6.67242 7.42505V11.175M9.22797 7.42505V11.175" stroke="black" stroke-width="1.6" stroke-linecap="round" stroke-linejoin="round"/>
</svg>
