<svg width="16" height="16" viewBox="0 0 16 16" fill="none" xmlns="http://www.w3.org/2000/svg">
<path d="M11.0362 11.1992H4.07253C3.64275 11.1992 3.21718 11.1152 2.82011 10.9518C2.42305 10.7885 2.06227 10.5491 1.75836 10.2473C1.14461 9.63782 0.799805 8.81117 0.799805 7.94922C0.799805 7.08727 1.14461 6.26061 1.75836 5.65112C2.37212 5.04163 3.20455 4.69922 4.07253 4.69922H4.5" stroke="black" stroke-width="1.6" stroke-linecap="round" stroke-linejoin="round"/>
<path d="M2.5 2.5L13 13" stroke="black" stroke-width="1.6" stroke-linecap="round" stroke-linejoin="round"/>
<path d="M5.38184 7.94922H7.6182" stroke="black" stroke-width="1.6" stroke-linecap="round" stroke-linejoin="round"/>
<path d="M8.96387 4.69922H11.9275C12.3573 4.69922 12.7829 4.78328 13.1799 4.94661C13.577 5.10994 13.9378 5.34933 14.2417 5.65112C14.5456 5.95291 14.7866 6.31119 14.9511 6.7055C15.1156 7.09981 15.2002 7.52242 15.2002 7.94922C15.2002 8.37601 15.1156 8.79863 14.9511 9.19294C14.8084 9.53508 14.608 9.8501 14.359 10.1246" stroke="black" stroke-width="1.6" stroke-linecap="round" stroke-linejoin="round"/>
</svg>
