<svg width="16" height="16" viewBox="0 0 16 16" fill="none" xmlns="http://www.w3.org/2000/svg">
  <path
    d="M8 14C11.3 14 14 11.3 14 8C14 4.7 11.3 2 8 2C4.7 2 2 4.7 2 8C2 11.3 4.7 14 8 14Z"
    stroke="currentColor"
    stroke-width="1.4"
  />
  <path
    d="M5 12.2C5.5 10.9 6.6 10.1 8 10.1C9.4 10.1 10.5 10.9 11 12.2"
    stroke="currentColor"
    stroke-width="1.4"
    stroke-linecap="round"
  />
  <path
    d="M8 8.4C9.1 8.4 10 7.5 10 6.4C10 5.3 9.1 4.4 8 4.4C6.9 4.4 6 5.3 6 6.4C6 7.5 6.9 8.4 8 8.4Z"
    stroke="currentColor"
    stroke-width="1.4"
  />
</svg>
