<svg width="16" height="16" viewBox="0 0 16 16" fill="none" xmlns="http://www.w3.org/2000/svg">
<g clip-path="url(#clip0_1135_74534)">
<path fill-rule="evenodd" clip-rule="evenodd" d="M8 0C12.4183 0 16 3.58172 16 8C16 12.4183 12.4183 16 8 16C3.58172 16 0 12.4183 0 8C0 3.58172 3.58172 0 8 0ZM8 10.2672C7.4109 10.2672 6.93359 10.7445 6.93359 11.3336C6.93373 11.9226 7.41098 12.4 8 12.4C8.58902 12.4 9.06627 11.9226 9.06641 11.3336C9.06641 10.7445 8.5891 10.2672 8 10.2672ZM8 3.6C7.41098 3.6 6.93373 4.07742 6.93359 4.66641V8C6.93359 8.5891 7.4109 9.06641 8 9.06641C8.5891 9.06641 9.06641 8.5891 9.06641 8V4.66641C9.06627 4.07742 8.58902 3.6 8 3.6Z" fill="black"/>
</g>
<defs>
<clipPath id="clip0_1135_74534">
<rect width="16" height="16" fill="white"/>
</clipPath>
</defs>
</svg>
